<svg viewBox="0 0 34 34" fill="none" xmlns="http://www.w3.org/2000/svg">
  <g fill-rule="evenodd" clip-rule="evenodd" fill="white">
    <path d="M22.1946 5.00436C17.2844 5.1446 13.2184 8.65591 12.2297 13.3053C11.456 12.2356 11 10.9211 11 9.5C11 5.91015 13.9101 3 17.5 3C19.3455 3 21.0114 3.76914 22.1946 5.00436Z" />
    <path d="M29.1554 12.191C25.5842 8.81807 20.2262 8.42588 16.2395 11.0144C16.4488 9.7109 17.0559 8.45892 18.0607 7.45407C20.5991 4.91567 24.7147 4.91567 27.2531 7.45407C28.5581 8.75906 29.1922 10.4809 29.1554 12.191Z" />
    <path d="M28.9956 22.1947C28.8554 17.2844 25.3441 13.2185 20.6947 12.2298C21.7644 11.4561 23.0789 11.0001 24.5 11.0001C28.0899 11.0001 31 13.9102 31 17.5001C31 19.3456 30.2309 21.0115 28.9956 22.1947Z" />
    <path d="M21.809 29.1554C25.1819 25.5842 25.5741 20.2262 22.9856 16.2395C24.2891 16.4488 25.5411 17.0559 26.5459 18.0607C29.0843 20.5991 29.0843 24.7147 26.5459 27.2531C25.2409 28.5581 23.5191 29.1922 21.809 29.1554Z" />
    <path d="M11.8053 28.9956C16.7156 28.8554 20.7815 25.3441 21.7702 20.6947C22.5439 21.7644 22.9999 23.0789 22.9999 24.5C22.9999 28.0899 20.0898 31 16.4999 31C14.6544 31 12.9885 30.2309 11.8053 28.9956Z" />
    <path d="M4.84462 21.809C8.41584 25.1819 13.7738 25.5741 17.7605 22.9856C17.5512 24.2891 16.9441 25.5411 15.9393 26.5459C13.4009 29.0843 9.28532 29.0843 6.74691 26.5459C5.44193 25.2409 4.80783 23.5191 4.84462 21.809Z" />
    <path d="M5.00436 11.8053C5.1446 16.7156 8.65591 20.7815 13.3053 21.7702C12.2356 22.5439 10.9211 22.9999 9.5 22.9999C5.91015 22.9999 3 20.0898 3 16.4999C3 14.6544 3.76914 12.9885 5.00436 11.8053Z" />
    <path d="M12.191 4.84468C8.81807 8.4159 8.42588 13.7738 11.0144 17.7606C9.7109 17.5513 8.45892 16.9442 7.45407 15.9394C4.91567 13.401 4.91567 9.28538 7.45407 6.74698C8.75906 5.44199 10.4809 4.80789 12.191 4.84468Z" />
  </g>
</svg>
